<svg xmlns="http://www.w3.org/2000/svg" xml:space="preserve" id="Layer_1" x="0" y="0" version="1.1" viewBox="0 0 112.3 253.3">
  <style>
    .st1{fill:#4f6e86}.st10{fill:#7d99ad}.st11{fill:#2f3c4f}.st12{fill:#edf7fd}.st13{fill:#e87a49}.st14{fill:#fcb040}.st403{fill:none;stroke:#edf7fd;stroke-miterlimit:10}
  </style>
  <path d="m111.5 79.2-41.1-23-7.8 4.5 41 23z" class="st10"/>
  <path d="m103.8 183.9-41.1-23-.1-100.2 41 23z" class="st11"/>
  <path d="m111.5 79.2-.1 100.6-7.8 4.5V83.7z" class="st1"/>
  <path d="m54.9 250.9 51.1-29.5V73.5L54.9 103z" class="st1"/>
  <path d="m73.3 235.9 23.9-13.8c2.3-1.3 3.7-3.8 3.7-6.4V121c0-5.7-6.2-9.3-11.1-6.4l-23.9 13.8c-2.3 1.3-3.7 3.8-3.7 6.4v94.7c0 5.7 6.2 9.2 11.1 6.4z" class="st12"/>
  <path d="M54.9 251.1 2.3 221.6V73.7l52.6 29.5z" class="st11"/>
  <path d="M106.2 73.6 53.6 44.1 2.3 73.5 54.9 103zm-57.3 42.2-41-23L0 97.2l41.1 23.1z" class="st10"/>
  <path d="m41.2 220.5-21.4-12L.1 197.4 0 97.2l41.1 23.1z" class="st11"/>
  <path d="m48.9 115.8-.1 100.6-7.8 4.5.1-100.6z" class="st1"/>
  <path d="M100.9 23 59.8 0l-40 23 41 23z" class="st10"/>
  <path d="m60.9 87.7-41-23-.1-41.7 41 23z" class="st11"/>
  <path d="m100.9 23-.1 42.1-40.1 23 .1-42.1z" class="st1"/>
  <path d="M76.7 49.4v7.1l-4.4 2.6v-7.2z" class="st12"/>
  <path d="M79.7 44.3v14.8c0 .5-.3 1-.7 1.3l-8.3 4.8c-1 .6-2.2-.1-2.2-1.3V49.1c0-.5.3-1 .7-1.3l8.3-4.8c.9-.5 2.2.2 2.2 1.3z" class="st403"/>
  <path d="M91.4 41.4v7.1L87 51v-7.1z" class="st12"/>
  <path d="M94.9 36.2V51c0 .5-.3 1-.7 1.3l-8.3 4.8c-1 .6-2.2-.1-2.2-1.3V41c0-.5.3-1 .7-1.3l8.3-4.8c1-.5 2.2.2 2.2 1.3z" class="st403"/>
  <path d="M78.8 66.1V74l13.4 7.1z" class="st13"/>
  <path d="m90.7 59.1-11.9 7 13.4 15 9.6-6.7z" class="st14"/>
  <path d="M89.4 223.8v7.9l13.3 7.1z" class="st13"/>
  <path d="m101.3 216.8-11.9 7 13.3 15 9.6-6.7z" class="st14"/>
  <path d="M62 238.3v8l13.4 7z" class="st13"/>
  <path d="m74 231.3-12 7 13.4 15 9.6-6.7z" class="st14"/>
</svg>
