<svg xmlns="http://www.w3.org/2000/svg" fill="none" viewBox="0 0 46 77"><path fill="#7D99AD" d="m44.745 22.15-12.963-7.383-2.51 1.424 13.017 7.33 2.456-1.37Z"/><path fill="#2F3C4F" d="m42.34 55.588-6.795-3.85-6.22-3.534-.052-32.013 13.015 7.33.053 32.067Z"/><path fill="#4F6E86" d="M44.745 22.15v32.12l-2.404 1.318-.053-32.066 2.457-1.371Z"/><path fill="#4F6E86" d="m27.631 76.48 16.205-9.313V20.603l-8.103 4.656-8.102 4.657V76.48Z"/><path fill="#EDF7FD" d="m33.486 69.144 7.527-4.318c.732-.416 1.15-1.197 1.15-2.03v-29.81a2.338 2.338 0 0 0-2.352-2.342c-.419 0-.837.104-1.15.312l-7.528 4.318c-.732.416-1.15 1.197-1.15 2.03v29.81a2.337 2.337 0 0 0 3.503 2.03Z"/><path fill="#2F3C4F" d="m27.631 76.48-12.493-6.972-.261-18.157-3.92-2.862V20.603l16.674 9.313V76.48Z"/><path fill="#7D99AD" d="m10.956 20.603 16.675 9.313 8.102-4.657 8.103-4.656-16.205-8.377-16.675 8.377Z"/><path fill="#E36C25" d="M30.976 71.797v2.654l4.235 2.237-4.235-4.89Z"/><path fill="#FCB040" d="m34.74 69.768-3.764 2.03 4.235 4.89 3.031-2.081-3.502-4.839Z"/><path fill="#E36C25" d="M38.295 67.635v2.653l4.234 2.238-4.234-4.89Z"/><path fill="#FCB040" d="m42.058 65.606-3.763 2.03 4.234 4.89 3.032-2.081-3.503-4.839Z"/><path fill="#D9D9D9" d="M30.027 76.004 3.54 69.087l1.898-21.134 26.45 7.014-1.862 21.037Z"/><path fill="#2F3C4F" d="m31.889 54.967 1.142-1.185-26.465-7.15-1.127 1.32 26.45 7.015Z"/><path fill="#4F6E86" d="m30.027 76.004 1.157-1.36 1.847-20.862-1.142 1.185-1.862 21.037Zm-1.835-3.92.925-.754 1.321-14.92-.888.34-1.358 15.334Z"/><path fill="#2F3C4F" d="m29.55 56.75.888-.34-20.961-5.597-.888.34 20.96 5.597Z"/><path fill="#99BFD6" d="M28.192 72.084 29.55 56.75 8.589 51.153 7.23 66.487l20.961 5.597Z"/><path fill="#E36C25" d="M13.728 57.585c-2.414-.215-4.54 1.541-4.748 3.923l4.371.388.377-4.311Z"/><path fill="#FCB040" fill-rule="evenodd" d="M17.723 62.285c-.208 2.38-2.334 4.137-4.748 3.922-2.414-.214-4.203-2.318-3.995-4.7l4.371.39 3.586-2.482c.576.807.878 1.811.786 2.87Z" clip-rule="evenodd"/><path fill="#F4C389" d="m13.728 57.585-.377 4.311 3.586-2.481a4.411 4.411 0 0 0-3.209-1.83Z"/><path fill="#2F3C4F" d="m20.498 56.759.101-1.154 8.668 1.933-.1 1.153-8.669-1.932Zm1.578 2.174.1-1.154 6.94 1.489-.1 1.153-6.94-1.488Zm1.018 1.833.1-1.153 5.771 1.385-.1 1.153-5.771-1.385Zm.433 1.782.101-1.153 5.186 1.332-.1 1.154-5.187-1.333Zm-.151 1.73.101-1.153 5.186 1.332-.1 1.153-5.187-1.332Zm-.151 1.73.101-1.153 5.186 1.332-.1 1.153-5.187-1.332Zm-1.879 1.285.1-1.153 6.915 1.777-.101 1.153-6.914-1.777Zm.992 2.122.101-1.153 5.77 1.385-.1 1.153-5.77-1.385Z"/><path fill="#7D99AD" d="m25.404 31.116-12.963-7.383-2.51 1.424 13.017 7.33 2.456-1.37Z"/><path fill="#2F3C4F" d="m23 64.553-6.796-3.85-6.22-3.533-.052-32.013 13.016 7.33L23 64.554Z"/><path fill="#4F6E86" d="M25.404 31.116v32.119L23 64.553l-.052-32.065 2.456-1.372Z"/><path fill="#7D99AD" d="M40.438 7.232 27.422 0l-12.65 7.232 13.016 7.231 12.65-7.231Z"/><path fill="#2F3C4F" d="m27.788 27.626-12.964-7.231-.052-13.163 13.016 7.231v13.163Z"/><path fill="#4F6E86" d="m40.438 7.232-.052 13.267-12.598 7.127V14.463l6.323-3.625 6.327-3.606Z"/><path fill="#E36C25" fill-rule="evenodd" d="M33.488 20.655v2.866l4.45 2.084-4.45-4.95Z" clip-rule="evenodd"/><path fill="#C96021" d="m33.488 20.655 4.45 4.95 2.618-2.084-4.777-4.168-2.29 1.302Z"/><path fill="#FCB040" d="m37.153 18.571-3.665 2.084 4.974 3.387 2.617-2.084-3.926-3.387Z"/><path fill="#EDF7FD" d="M30.61 18.571c0-4.168 1.308-4.95 2.093-1.042-.785-.617-1.57-.521-2.094 1.042Zm5.496-2.664c0-4.169 1.309-4.95 2.094-1.043-.785-.616-1.57-.52-2.094 1.043Z"/></svg>