<svg xmlns="http://www.w3.org/2000/svg" xml:space="preserve" viewBox="0 0 62.4 157.3"><path fill="#7d99ad" d="m.424 60.5 22.8-12.8 4.4 2.5L4.824 63l-4.4-2.5z"/><path fill="#2f3c4f" d="m4.724 118.7 22.8-12.8.1-55.7L4.824 63l-.1 55.7z"/><path fill="#4f6e86" d="M.424 60.5v55.9l4.4 2.5V63l-4.4-2.5z"/><path fill="#4f6e86" d="m31.924 155.9-28.4-16.4V57.4l28.4 16.4v82.1z"/><path fill="#edf7fd" d="m21.724 147.6-13.3-7.6c-1.3-.7-2.1-2.1-2.1-3.6V83.8c0-2.3 1.8-4.1 4.1-4.1.7 0 1.4.2 2.1.5l13.3 7.6c1.3.7 2.1 2.1 2.1 3.6V144c0 2.3-1.8 4.1-4.1 4.1-.8.1-1.5-.1-2.1-.5"/><path fill="#2f3c4f" d="m31.924 155.9 21.9-12.3.5-32.1 6.9-5V57.4l-29.2 16.4-.1 82.1z"/><path fill="#7d99ad" d="m3.424 57.4 29.2-16.4 28.5 16.4-29.2 16.4-28.5-16.4zM6.424 29.3l22.8-12.8 22.2 12.8-22.8 12.8-22.2-12.8z"/><path fill="#2f3c4f" d="m28.524 65.3 22.8-12.8.1-23.2-22.8 12.8-.1 23.2z"/><path fill="#4f6e86" d="M6.424 29.3v23.4l22.2 12.8V42.1l-22.2-12.8z"/><path fill="#edf7fd" d="M10.624 37.1v5.6l3.5 2v-5.6l-3.5-2zM19.824 42.1v5.6l3.5 2v-5.6l-3.5-2z"/><path fill="#e36c25" d="M18.624 53.2v4.4l-7.4 3.9 7.4-8.3z"/><path fill="#fcb040" d="m12.024 49.3 6.6 3.9-7.4 8.3-5.3-3.7 6.1-8.5z"/><path fill="#e36c25" d="M12.724 140.9v4.4l-7.4 3.9 7.4-8.3z"/><path fill="#fcb040" d="m6.124 137 6.6 3.9-7.4 8.3-5.3-3.7 6.1-8.5z"/><path fill="#e36c25" d="M27.924 148.9v4.4l-7.4 3.9 7.4-8.3z"/><path fill="#fcb040" d="m21.324 145 6.6 3.9-7.4 8.3-5.3-3.7 6.1-8.5z"/><path fill="#7d99ad" d="m35.224 76 22.8-12.8 4.4 2.5-22.8 12.7-4.4-2.4z"/><path fill="#2f3c4f" d="m39.524 134.1 11.9-6.7 10.9-6.1.1-55.7-22.8 12.8-.1 55.7z"/><path fill="#4f6e86" d="M35.224 76v55.9l4.4 2.5V78.5l-4.4-2.5z"/><path fill="#fcb040" d="m21.6 20.7-6.4 4V2.8l6.5 2.7z"/><path fill="#7d99ad" d="m43.7 31.4 5.9 3.4v.1l-13.1 7.8-1.6-.9-4.4-2.5z"/><path fill="#4f6e86" d="m30.4 54.9 6 3.8V45.9l.1-3.2-6-3.4"/><path fill="#2f3c4f" d="m36.4 58.6 13.2-7.8.1-15.9-13.2 7.8z"/><path fill="#e36c25" d="m37.2 38.9-1.8-1-.1-20.1L13.4 5l-.1-1.6L37.2 17z"/><path fill="#e36c25" d="M15.2 2.8v21.9l-1.8-1.1v-20"/><path fill="#f4c389" d="M37.2 17 13.3 3.4 19.8 0l23.8 13.6z"/><path fill="#fcb040" d="m43.6 34.9-6.4 4V17l6.4-3.4z"/><path fill="none" stroke="#fcb040" stroke-miterlimit="10" stroke-width="2.835" d="m32.7 54.8-11 6.5-5.8-.4"/></svg>