<svg xmlns="http://www.w3.org/2000/svg" fill="none" viewBox="0 0 34 73"><path fill="#7D99AD" d="M.749 8.214 11.512.267l2.372 1L3.07 9.172.75 8.214Z"/><path fill="#2F3C4F" d="m6.274 37.702 5.644-4.148 5.166-3.805-3.2-28.482L3.07 9.172l3.205 28.53Z"/><path fill="#4F6E86" d="m.749 8.214 3.257 28.57 2.268.918L3.07 9.172.75 8.214Z"/><path fill="#4F6E86" d="m18.652 72.697-14.46-8.473V21.862l7.23 4.236 7.23 4.236v42.363Z"/><path fill="#EDF7FD" d="M13.428 66.023 6.71 62.094c-.653-.379-1.026-1.089-1.026-1.846V33.127c0-1.184.933-2.13 2.1-2.13.372 0 .745.095 1.025.284l6.718 3.928c.653.38 1.026 1.09 1.026 1.846v27.122c0 1.183-.933 2.13-2.1 2.13-.326 0-.699-.095-1.025-.284Z"/><path fill="#2F3C4F" d="m18.652 72.697 11.15-6.343.233-16.519 3.498-2.603v-25.37l-14.88 8.472v42.363Z"/><path fill="#7D99AD" d="m33.533 21.862-14.88 8.472-7.231-4.236-7.23-4.236 14.46-7.62 14.881 7.62Z"/><path fill="#E36C25" d="M15.34 68.153v2.413l-3.778 2.036 3.778-4.45Z"/><path fill="#FCB040" d="m11.982 66.307 3.358 1.846-3.778 4.449-2.706-1.894 3.126-4.401Z"/><path fill="#E36C25" d="M8.81 64.366v2.414l-3.78 2.035 3.78-4.449Z"/><path fill="#FCB040" d="m5.45 62.52 3.36 1.846-3.78 4.45-2.705-1.894 3.126-4.402Z"/><path fill="#7D99AD" d="m7.363 9.934 11.616-6.58 11.29 6.58-11.617 6.58-11.289-6.58Z"/><path fill="#2F3C4F" d="m18.652 28.488 11.57-6.579.046-11.975-11.616 6.58v11.974Z"/><path fill="#4F6E86" d="m7.363 9.934.047 12.07 11.242 6.484V16.513l-5.642-3.298-5.647-3.28Z"/><path fill="#E36C25" fill-rule="evenodd" d="M13.474 22.288v2.603L9.51 26.784l3.965-4.496Z" clip-rule="evenodd"/><path fill="#C96021" d="M13.474 22.288 9.51 26.784l-2.332-1.893 4.257-3.787 2.04 1.184Z"/><path fill="#FCB040" d="m10.209 20.395 3.265 1.893-4.431 3.076-2.333-1.893 3.499-3.076Z"/><path fill="#EDF7FD" d="M16.04 20.395c0-3.787-1.166-4.497-1.866-.947.7-.56 1.4-.474 1.866.947Zm-4.898-2.421c0-3.787-1.166-4.497-1.866-.947.7-.56 1.4-.473 1.866.947Z"/><path fill="#7D99AD" d="m20.212 31.774 11.552-6.617L34 26.433l-11.599 6.57-2.189-1.23Z"/><path fill="#2F3C4F" d="m22.355 61.738 6.055-3.45 5.543-3.167L34 26.433l-11.599 6.57-.046 28.735Z"/><path fill="#4F6E86" d="M20.212 31.774v28.783l2.143 1.181.046-28.735-2.189-1.23Z"/></svg>