<svg xmlns="http://www.w3.org/2000/svg" xml:space="preserve" id="Layer_1" x="0" y="0" version="1.1" viewBox="0 0 134.3 302.9">
  <style>
    .st2{fill:#4f6e86}.st10{fill:#7d99ad}.st11{fill:#2f3c4f}.st12{fill:#edf7fd}.st14{fill:#fcb040}.st406{fill:#e36c25}
  </style>
  <path id="Path_161" d="m1 94.7 49.1-27.5 9.4 5.3L10.4 100 1 94.7z" class="st10"/>
  <path id="Path_162" d="m10.2 219.9 49.1-27.5.1-119.8-49.1 27.5-.1 119.8z" class="st11"/>
  <path id="Path_163" d="m1 94.8.1 120.3 9.4 5.3-.1-120.3L1 94.8z" class="st2"/>
  <path id="Path_164" d="M68.7 300 7.5 264.7V87.9l61.2 35.3V300z" class="st2"/>
  <path id="Path_165" d="m46.7 282.1-28.5-16.4c-2.7-1.6-4.4-4.5-4.4-7.7V144.8c0-4.9 4-8.8 8.9-8.8 1.6 0 3.1.4 4.4 1.2l28.5 16.4c2.7 1.6 4.4 4.5 4.4 7.7v113.2c0 4.9-4 8.8-8.8 8.8-1.7 0-3.2-.4-4.5-1.2" class="st12"/>
  <path id="Path_166" d="m68.7 300.2 62.9-35.3V88.1l-62.9 35.3v176.8z" class="st11"/>
  <path id="Path_167" d="m7.4 88 62.9-35.3 61.3 35.2-62.9 35.3L7.4 88z" class="st10"/>
  <path id="Path_168" d="M13.7 27.5 62.8 0l47.9 27.5L61.6 55 13.7 27.5z" class="st10"/>
  <path id="Path_169" d="m61.4 104.9 49.1-27.5.2-49.9L61.6 55l-.2 49.9z" class="st11"/>
  <path id="Path_170" d="m13.7 27.5.1 50.4 47.9 27.5-.1-50.4-47.9-27.5z" class="st2"/>
  <path id="Path_171" d="M22.8 44.2v12l7.5 4.3v-12l-7.5-4.3z" class="st12"/>
  <path id="Path_172" d="M42.7 55v12l7.5 4.3v-12L42.7 55z" class="st12"/>
  <path id="Path_173" d="M40.1 79v9.5l-16 8.5 16-18z" class="st406"/>
  <path id="Path_174" d="M25.8 70.6 40.1 79l-16 18-11.5-8 13.2-18.4z" class="st14"/>
  <path id="Path_175" d="M27.4 267.6v9.5l-15.9 8.4 15.9-17.9z" class="st406"/>
  <path id="Path_176" d="m13.2 259.2 14.2 8.4-15.9 18-11.5-8 13.2-18.4z" class="st14"/>
  <path id="Path_177" d="M60.1 285v9.5l-15.9 8.4L60.1 285z" class="st406"/>
  <path id="Path_178" d="m45.9 276.6 14.2 8.4-15.9 18-11.5-8 13.2-18.4z" class="st14"/>
  <path id="Path_179" d="m75.8 34.7 49.1-27.5 9.4 5.3-49.1 27.6-9.4-5.4z" class="st10"/>
  <path id="Path_180" d="m85.1 159.9 25.6-14.4 23.5-13.2.1-119.8-49.1 27.6-.1 119.8z" class="st11"/>
  <path id="Path_181" d="m75.8 34.7.1 120.3 9.4 5.3-.1-120.2-9.4-5.4z" class="st2"/>
</svg>
