<svg xmlns="http://www.w3.org/2000/svg" xml:space="preserve" id="Layer_1" x="0" y="0" version="1.1" viewBox="0 0 112.4 253.5"><style>.st1{fill:#4f6e86}.st10{fill:#7d99ad}.st11{fill:#2f3c4f}.st12{fill:#edf7fd}.st14{fill:#fcb040}.st406{fill:#e36c25}</style><path d="M111.6 79.3 70.5 56.2l-7.9 4.5 41.1 23z" class="st10"/><path d="m103.8 184-41.1-23-.1-100.3 41.1 23z" class="st11"/><path d="m111.6 79.3-.1 100.7-7.9 4.4.1-100.7z" class="st1"/><path d="m54.9 251 51.2-29.5V73.6l-51.2 29.5z" class="st1"/><path d="m73.3 236 23.9-13.8c2.3-1.3 3.7-3.8 3.7-6.4v-94.7c0-5.7-6.2-9.3-11.1-6.4l-23.9 13.8c-2.3 1.3-3.7 3.8-3.7 6.4v94.7c0 5.7 6.2 9.3 11.1 6.4z" class="st12"/><path d="M54.9 251.2 2.3 221.7v-148l52.6 29.6z" class="st11"/><path d="M106.2 73.6 53.6 44.1 2.3 73.6l52.6 29.5zM100.9 23 59.8 0l-40 23 41.1 23z" class="st10"/><path d="m61 87.8-41.1-23-.1-41.8 41.1 23z" class="st11"/><path d="m100.9 23-.1 42.2-40 23 .1-42.2z" class="st1"/><path d="m93.4 37-.1 10.1-6.2 3.6V40.6zm-16.7 9v10.1l-6.3 3.6V49.6z" class="st12"/><path d="M78.9 66.1v8l13.3 7z" class="st406"/><path d="m90.8 59.1-11.9 7 13.3 15 9.6-6.6z" class="st14"/><path d="M89.4 223.9v8l13.4 7z" class="st406"/><path d="m101.4 216.9-12 7 13.4 15 9.6-6.6z" class="st14"/><path d="M62.1 238.4v8l13.3 7.1z" class="st406"/><path d="m74 231.4-11.9 7 13.3 15.1 9.6-6.7z" class="st14"/><path d="M48.9 29.1 7.9 6 0 10.5l41.1 23z" class="st10"/><path d="m41.2 133.8-21.4-12-19.7-11L0 10.5l41.1 23z" class="st11"/><path d="M48.9 29.1v100.6l-7.9 4.5.1-100.7z" class="st1"/></svg>